<svg xmlns="http://www.w3.org/2000/svg" xmlns:xlink="http://www.w3.org/1999/xlink" version="1.1" id="Laag_1" x="0px" y="0px" viewBox="0 0 398.9 242.9" style="enable-background:new 0 0 398.9 242.9;" xml:space="preserve">
<style type="text/css">
	.st0{clip-path:url(#SVGID_2_);}
	.st1{fill:#F59A00;}
	.st2{fill:#1A5036;}
	.st3{clip-path:url(#SVGID_4_);}
</style>
<g>
	<defs>
		<rect id="SVGID_1_" x="-76" y="-175" width="566.9" height="566.9"/>
	</defs>
	<clipPath id="SVGID_2_">
		<use xlink:href="#SVGID_1_" style="overflow:visible;"/>
	</clipPath>
	<g class="st0">
		<path class="st1" d="M266.8,46.1c0,17.4-26.7,31.5-59.6,31.5s-59.6-14.1-59.6-31.5s26.7-31.5,59.6-31.5S266.8,28.8,266.8,46.1"/>
		<path class="st2" d="M210.5,138.1V85.2c6.1,2.8,15.7,9.2,18.2,22l0.5,2.3l10.9-2.2l-0.5-2.3c-2.9-14.1-11.9-22.5-19.2-27    c5.7-1.1,13.5-0.4,23.1,5.3l2,1.2l5.7-9.6l-2.1-1.2c-11.9-7.1-22-8-29.6-6.9c4.8-5.5,11.3-9.4,18.4-11l2.3-0.5l-2.6-10.8l-2.3,0.6    c-11.7,2.6-21.9,9.8-28.3,19.9C200.8,54.8,190.6,47.6,179,45l-2.3-0.6L174,55.3l2.3,0.5c7.2,1.6,13.6,5.5,18.4,11    c-7.6-1.2-17.7-0.2-29.6,6.9l-2,1.2l5.6,9.5l2.1-1.2c9.6-5.7,17.3-6.3,23.1-5.3c-7.3,4.6-16.3,12.9-19.1,27l-0.5,2.3l10.9,2.2    l0.5-2.3c2.3-11.3,10-17.6,16.1-20.9v51.6c-33.3-3-57.8-32.4-54.8-65.7s32.4-57.8,65.7-54.8s57.8,32.4,54.8,65.7    C264.7,113,240.5,136.4,210.5,138.1L210.5,138.1z M207.2,6c-39.6,0-71.7,32.1-71.7,71.7s32.1,71.7,71.7,71.7s71.7-32.1,71.7-71.7    c0,0,0,0,0,0C278.9,38.1,246.8,6,207.2,6"/>
		<path class="st2" d="M29,204c-1.6-2.8-3.6-4.4-7-4.4c-3.6-0.2-6.6,2.6-6.7,6.2c0,0.1,0,0.1,0,0.2c0,3.5,3.6,5.1,6.4,6.4l2.7,1.2    c5.3,2.3,9.8,5,9.8,11.5c0,6.9-5.6,12.6-12.6,12.6c-0.1,0-0.2,0-0.2,0c-6.5,0-11.4-4.2-12.7-10.5l4.4-1.2c0.6,4.2,3.8,7.6,8.2,7.6    c4.5,0.1,8.2-3.4,8.4-7.9c0-4.8-3.7-6.4-7.5-8.1l-2.5-1.1c-4.8-2.2-8.9-4.6-8.9-10.4c0-6.3,5.3-10.4,11.4-10.4    c4.4-0.1,8.5,2.4,10.5,6.3L29,204z"/>
		<path class="st2" d="M53.8,220.3c0,3-0.1,6.5,1.8,9.1c2,2.5,5,3.9,8.2,3.9c3.1,0,6-1.3,8-3.6c2.2-2.6,2-6.2,2-9.4V196h4.5v25.5    c0,4.4-0.3,7.9-3.6,11.3c-2.9,3-6.8,4.7-11,4.6c-3.9,0-7.7-1.5-10.5-4.2c-3.6-3.4-4-7.1-4-11.8V196h4.6V220.3z"/>
	</g>
</g>
<polygon class="st2" points="95.3,194.3 127.1,227.6 127.1,196 131.6,196 131.6,238.6 99.9,205.4 99.9,236.8 95.3,236.8 "/>
<polygon class="st2" points="149.1,194.3 180.8,227.6 180.8,196 185.4,196 185.4,238.6 153.6,205.4 153.6,236.8 149.1,236.8 "/>
<polygon class="st2" points="198.8,196 204.1,196 214.5,214.2 224.8,196 230.1,196 216.7,219.3 216.7,236.8 212.2,236.8   212.2,219.3 "/>
<polygon class="st2" points="272.9,236.8 268.4,236.8 268.4,200.2 258.6,200.2 258.6,196 282.9,196 282.9,200.2 272.9,200.2 "/>
<g>
	<defs>
		<rect id="SVGID_3_" x="-76" y="-175" width="566.9" height="566.9"/>
	</defs>
	<clipPath id="SVGID_4_">
		<use xlink:href="#SVGID_3_" style="overflow:visible;"/>
	</clipPath>
	<g class="st3">
		<path class="st2" d="M300.7,214.9h1.4c5.1,0,10.3-1,10.3-7.3c0-6.7-4.9-7.4-10.4-7.4h-1.3V214.9z M300.7,236.8h-4.5V196h5.9    c7.7,0,14.9,2.1,14.9,11.2c0,6.3-3.9,10.7-10.2,11.2l13,18.3h-5.6l-12.4-17.8h-1.1L300.7,236.8z"/>
	</g>
</g>
<polygon class="st2" points="334.1,196 355.2,196 355.2,200.2 338.7,200.2 338.7,212.4 354.8,212.4 354.8,216.6 338.7,216.6   338.7,232.6 355.2,232.6 355.2,236.8 334.1,236.8 "/>
<polygon class="st2" points="371.6,196 392.8,196 392.8,200.2 376.2,200.2 376.2,212.4 392.3,212.4 392.3,216.6 376.2,216.6   376.2,232.6 392.8,232.6 392.8,236.8 371.6,236.8 "/>
</svg>
