<svg enable-background="new 0 0 443.3 490" version="1.1" viewBox="0 0 443.3 490" xml:space="preserve" xmlns="http://www.w3.org/2000/svg"><path d="m373.3 39.8v410.3l50.1-50.1c4.6-4.6 11.9-4.6 16.5 0s4.6 11.9 0 16.5l-70 70c-4.6 4.6-11.9 4.6-16.5 0l-70-70c-4.6-4.6-4.6-11.9 0-16.5s11.9-4.6 16.5 0l50.1 50.1v-410.3l-50.1 50.1c-4.6 4.6-11.9 4.6-16.5 0s-4.6-11.9 0-16.5l70-70c4.6-4.6 11.9-4.6 16.5 0l70 70c4.6 4.6 4.6 11.9 0 16.5s-11.9 4.6-16.5 0l-50.1-50.1zm-361.6 30.2c-6.5 0-11.7-5.2-11.7-11.7 0-6.4 5.2-11.7 11.7-11.7h186.7c6.4 0 11.7 5.2 11.7 11.7 0 6.4-5.2 11.7-11.7 11.7h-186.7zm0 70c-6.5 0-11.7-5.2-11.7-11.7 0-6.4 5.2-11.7 11.7-11.7h163.3c6.4 0 11.7 5.2 11.7 11.7 0 6.4-5.2 11.7-11.7 11.7h-163.3zm0 70c-6.5 0-11.7-5.2-11.7-11.7 0-6.4 5.2-11.7 11.7-11.7h186.7c6.4 0 11.7 5.2 11.7 11.7 0 6.4-5.2 11.7-11.7 11.7h-186.7zm0 70c-6.5 0-11.7-5.2-11.7-11.7 0-6.4 5.2-11.7 11.7-11.7h163.3c6.4 0 11.7 5.2 11.7 11.7 0 6.4-5.2 11.7-11.7 11.7h-163.3zm0 70c-6.5 0-11.7-5.2-11.7-11.7 0-6.4 5.2-11.7 11.7-11.7h186.7c6.4 0 11.7 5.2 11.7 11.7 0 6.4-5.2 11.7-11.7 11.7h-186.7zm0 70c-6.5 0-11.7-5.2-11.7-11.7 0-6.4 5.2-11.7 11.7-11.7h163.3c6.4 0 11.7 5.2 11.7 11.7 0 6.4-5.2 11.7-11.7 11.7h-163.3z"></path></svg>
