<svg enable-background="new 0 0 658.4 560" version="1.1" viewBox="0 0 658.4 560" xml:space="preserve" xmlns="http://www.w3.org/2000/svg"><path d="m652.7 220.2c-3.7-3.7-8.6-5.7-13.8-5.7s-10.1 2.1-13.8 5.7l-68.7 68.7v-10.6c0-153.5-124.8-278.3-278.2-278.3s-278.2 124.8-278.2 278.2c0 155.4 124.8 281.8 278.2 281.8 36.5 0.1 72.8-7.1 106.5-21 33.8-14 64.4-34.5 90.2-60.4 4.9-4.9 6.9-12.1 5-18.9-1.8-6.7-7.1-12-13.8-13.8s-13.9 0.1-18.9 5c-22.2 22.3-48.5 39.9-77.5 52-29 12-60.1 18.2-91.6 18.1-131.7-0.1-239-109-239-242.8 0-63.4 25.2-124.2 70-169.1s105.7-70 169.1-70 124.2 25.2 169.1 70 70 105.7 70 169.1v10.6l-68.7-68.7c-4.9-4.9-12.1-6.9-18.9-5.1-6.7 1.8-12 7.1-13.8 13.8s0.1 13.9 5.1 18.9l102 102c0.9 0.9 1.9 1.7 3 2.4 0.5 0.3 1 0.5 1.4 0.8 1.2 0.8 2.5 1.3 3.9 1.6 0.6 0.2 1.1 0.4 1.7 0.5 2.5 0.5 5.1 0.5 7.6 0 0.6-0.1 1.1-0.3 1.7-0.5 1.4-0.3 2.7-0.8 3.9-1.6 0.5-0.3 1-0.5 1.4-0.8 1.1-0.7 2.1-1.5 3-2.4l102-102c3.7-3.7 5.7-8.6 5.7-13.8 0.1-5.1-1.9-10.1-5.6-13.7z"></path></svg>
