<svg enable-background="new 0 0 465.9 465.9" version="1.1" viewBox="0 0 465.9 465.9" xml:space="preserve" xmlns="http://www.w3.org/2000/svg"><path d="m233 374.9c-44.1 0-85.7-20.5-112.6-55.5s-35.9-80.5-24.5-123.1 42-77.5 82.8-94.4 87.1-13.9 125.3 8.2 64 60.6 69.8 104.4-9.2 87.7-40.4 118.9c-26.6 26.6-62.8 41.6-100.4 41.5zm0-266c-68.4 0-124 55.6-124 124s55.6 124.1 124 124.1 124-55.6 124-124-55.6-124.1-124-124.1z"></path><path d="m171.2 92.7c-3.6 0-6.9-2.2-8.3-5.5l-12.8-30.8c-1.9-4.6 0.3-9.8 4.9-11.7s9.8 0.3 11.7 4.8l12.8 30.8c1.1 2.8 0.8 5.9-0.8 8.4-1.8 2.5-4.6 4-7.5 4z"></path><path d="m307.5 421.9c-3.6 0-6.9-2.2-8.3-5.5l-12.8-30.8c-1.9-4.6 0.3-9.8 4.9-11.7s9.8 0.3 11.7 4.9l12.8 30.8c1.1 2.8 0.8 5.9-0.8 8.4-1.7 2.4-4.5 3.9-7.5 3.9z"></path><path d="m171.2 92.7c-3.6 0-6.9-2.2-8.3-5.5l-12.8-30.8c-1.9-4.6 0.3-9.8 4.9-11.7s9.8 0.3 11.7 4.8l12.8 30.8c1.1 2.8 0.8 5.9-0.8 8.4-1.8 2.5-4.6 4-7.5 4z"></path><path d="m307.5 421.9c-3.6 0-6.9-2.2-8.3-5.5l-12.8-30.8c-1.9-4.6 0.3-9.8 4.9-11.7s9.8 0.3 11.7 4.9l12.8 30.8c1.1 2.8 0.8 5.9-0.8 8.4-1.7 2.4-4.5 3.9-7.5 3.9z"></path><path d="m83.7 180.1c-1.2 0-2.3-0.2-3.4-0.7l-30.8-12.8c-4.6-1.9-6.7-7.1-4.9-11.7 1.9-4.6 7.1-6.7 11.7-4.9l30.8 12.8c4 1.6 6.2 5.8 5.4 10-0.8 4.3-4.5 7.3-8.8 7.3z"></path><path d="m412.9 316.5c-1.2 0-2.3-0.2-3.4-0.7l-30.8-12.8c-4.6-1.9-6.7-7.1-4.9-11.7 1.9-4.6 7.1-6.7 11.7-4.9l30.8 12.8c4 1.6 6.2 5.8 5.4 10-0.8 4.3-4.5 7.3-8.8 7.3z"></path><path d="m53 316.5c-4.3 0-8-3-8.8-7.2s1.4-8.4 5.4-10l30.8-12.8c4.6-1.9 9.8 0.3 11.7 4.9s-0.3 9.8-4.9 11.7l-30.8 12.8c-1.1 0.3-2.3 0.6-3.4 0.6z"></path><path d="m382.2 180.1c-4.3 0-8-3-8.8-7.2s1.4-8.4 5.4-10l30.8-12.8c4.6-1.9 9.8 0.3 11.7 4.9s-0.3 9.8-4.8 11.7l-30.8 12.8c-1.2 0.4-2.4 0.6-3.5 0.6z"></path><path d="m158.4 421.9c-3 0-5.8-1.5-7.5-4s-2-5.6-0.8-8.4l12.8-30.8c1.9-4.6 7.1-6.7 11.7-4.9 4.6 1.9 6.7 7.1 4.9 11.7l-12.8 30.8c-1.4 3.4-4.7 5.6-8.3 5.6z"></path><path d="m294.8 92.7c-3 0-5.8-1.5-7.4-4-1.7-2.5-2-5.6-0.8-8.4l12.8-30.8c0.9-2.2 2.7-3.9 4.8-4.9 2.2-0.9 4.7-0.9 6.9 0 4.6 1.9 6.7 7.1 4.9 11.7l-13 30.9c-1.3 3.3-4.6 5.5-8.2 5.5z"></path><path d="M233,80.4c-4.9,0-9-4-9-9V9c0-4.9,4-9,9-9s9,4,9,9v62.5c0,2.4-0.9,4.7-2.6,6.3S235.3,80.4,233,80.4z"></path><path d="m233 465.9c-4.9 0-9-4-9-9v-62.5c0-4.9 4-9 9-9s9 4 9 9v62.6c0 2.4-0.9 4.7-2.6 6.3-1.8 1.7-4.1 2.6-6.4 2.6z"></path><path d="m118.8 127.7c-2.4 0-4.7-0.9-6.3-2.6l-44.3-44.2c-3.5-3.5-3.5-9.2 0-12.7s9.2-3.5 12.7 0l44.2 44.2c2.6 2.6 3.3 6.4 1.9 9.8-1.4 3.3-4.6 5.5-8.2 5.5z"></path><path d="m391.3 400.3c-2.4 0-4.7-0.9-6.3-2.6l-44.2-44.2c-3.3-3.5-3.3-9.1 0.2-12.5s9-3.5 12.5-0.2l44.2 44.2c2.6 2.6 3.3 6.4 1.9 9.8-1.4 3.3-4.6 5.5-8.3 5.5z"></path><path d="m71.5 241.9h-62.5c-4.9 0-9-4-9-9s4-9 9-9h62.5c4.9 0 9 4 9 9s-4.1 9-9 9z"></path><path d="m457 241.9h-62.5c-4.9 0-9-4-9-9s4-9 9-9h62.5c4.9 0 9 4 9 9s-4.1 9-9 9z"></path><path d="m74.6 400.3c-3.6 0-6.9-2.2-8.3-5.5s-0.6-7.2 1.9-9.8l44.2-44.2c3.5-3.3 9.1-3.3 12.5 0.2 3.4 3.4 3.5 9 0.2 12.5l-44.2 44.2c-1.7 1.7-4 2.6-6.3 2.6z"></path><path d="m347.2 127.7c-3.6 0-6.9-2.2-8.3-5.5s-0.6-7.2 1.9-9.8l44.2-44.2c3.5-3.5 9.2-3.5 12.7 0s3.5 9.2 0 12.7l-44.2 44.2c-1.7 1.7-4 2.6-6.3 2.6z"></path></svg>
