<svg enable-background="new 0 0 455 560" version="1.1" viewBox="0 0 455 560" xml:space="preserve" xmlns="http://www.w3.org/2000/svg"><path d="m454.6 233.5c-1.5-4.6-6.4-7.1-11.1-5.5l-35.9 12 12-35.9c1.5-4.6-0.9-9.5-5.5-11.1-4.6-1.5-9.5 1-11.1 5.5l-16.9 50.5-32.3 32.3c-13.9-14.4-30.2-26.6-48.8-35.8 17-18.7 27.5-43.4 27.5-70.6 0-18.5-4.9-36.6-14.1-52.5h5.4c19.3 0 35-15.7 35-35v-17.4c0-4.8-3.9-8.7-8.8-8.7h-45.9l-15.7-55c-1.1-3.7-4.5-6.3-8.4-6.3h-105c-3.9 0-7.3 2.6-8.4 6.3l-15.7 54.9h-45.9c-4.8 0-8.8 3.9-8.8 8.7v17.5c0 19.3 15.7 35 35 35h5.3c-9.2 15.9-14.1 34-14.1 52.5h-26.1c-4.8 0-8.8 3.9-8.8 8.8s3.9 8.8 8.8 8.8h27.8c3.4 20.3 12.6 38.5 25.9 53.1-18.6 9.2-34.9 21.4-48.8 35.8l-32.3-32.4-16.8-50.5c-1.5-4.6-6.4-7.1-11.1-5.5-4.6 1.5-7.1 6.5-5.5 11.1l12 35.9-35.9-12c-4.6-1.5-9.5 1-11.1 5.5-1.5 4.6 0.9 9.5 5.5 11.1l50.5 16.8 33.1 33.1c-23.6 30.1-37.2 67.8-37.2 108 0 64.7 35.5 123.9 92.7 154.4 3.8 2 8.1 3.1 12.4 3.1h139.9c4.3 0 8.6-1.1 12.4-3.1 57.2-30.5 92.7-89.7 92.7-154.4 0-40.2-13.5-77.9-37.2-108l33.1-33.1 50.5-16.8c4.7-1.6 7.2-6.5 5.7-11.1zm-273-216h91.8l12.5 43.8h-116.8l12.5-43.8zm-67.8 70v-8.8h227.5v8.8c0 9.7-7.9 17.5-17.5 17.5h-192.5c-9.7 0-17.5-7.8-17.5-17.5zm78.7 87.5h-52.5c0-19 6.3-37.4 17.6-52.5h139.8c11.3 15.1 17.6 33.5 17.6 52.5 0 48.2-39.3 87.5-87.5 87.5-42.3 0-77.6-30.1-85.7-70h50.7c4.8 0 8.8-3.9 8.8-8.8s-3.9-8.7-8.8-8.7zm192.5 227.5c0 58.2-32 111.5-83.4 139-1.3 0.7-2.7 1-4.1 1h-139.9c-1.4 0-2.9-0.4-4.1-1-51.5-27.5-83.5-80.8-83.5-139 0-35.4 11.7-68.6 32.2-95.4l14.1 14.1c1.7 1.7 3.9 2.6 6.2 2.6 2.2 0 4.5-0.9 6.2-2.6 3.4-3.4 3.4-9 0-12.4l-15.1-15.1c14-14.7 31.1-26.7 50.5-35.3 17.6 13.4 39.6 21.5 63.4 21.5s45.8-8.1 63.4-21.5c19.4 8.5 36.4 20.6 50.5 35.3l-15.1 15.1c-3.4 3.4-3.4 9 0 12.4 1.7 1.7 3.9 2.6 6.2 2.6 2.2 0 4.5-0.9 6.2-2.6l14.1-14.1c20.5 26.8 32.2 60 32.2 95.4z"></path><path d="m227.5 306.2c-14.5 0-26.2 11.8-26.2 26.2s11.8 26.2 26.2 26.2 26.2-11.8 26.2-26.2-11.7-26.2-26.2-26.2zm0 35c-4.8 0-8.8-3.9-8.8-8.8s3.9-8.8 8.8-8.8 8.8 3.9 8.8 8.8-4 8.8-8.8 8.8z"></path><path d="m227.5 376.2c-14.5 0-26.2 11.8-26.2 26.2s11.8 26.2 26.2 26.2 26.2-11.8 26.2-26.2-11.7-26.2-26.2-26.2zm0 35c-4.8 0-8.8-3.9-8.8-8.8s3.9-8.8 8.8-8.8 8.8 3.9 8.8 8.8-4 8.8-8.8 8.8z"></path><path d="m227.5 446.2c-14.5 0-26.2 11.8-26.2 26.2s11.8 26.2 26.2 26.2 26.2-11.8 26.2-26.2-11.7-26.2-26.2-26.2zm0 35c-4.8 0-8.8-3.9-8.8-8.8s3.9-8.8 8.8-8.8 8.8 3.9 8.8 8.8-4 8.8-8.8 8.8z"></path></svg>
