<svg enable-background="new 0 0 529.4 525" version="1.1" viewBox="0 0 529.4 525" xml:space="preserve" xmlns="http://www.w3.org/2000/svg"><path d="m528.8 319.9c2.5 9.3-3 18.9-12.4 21.4l-78.7 21.1 21.1 78.7c2.5 9.3-3 18.9-12.4 21.4-1.5 0.4-3 0.6-4.6 0.6-7.7 0-14.8-5.2-16.9-13l-23.7-88.6-119-68.7v137.4l64.9 64.9c6.8 6.8 6.8 17.9 0 24.7-3.4 3.4-7.9 5.1-12.4 5.1s-9-1.7-12.4-5.1l-57.6-57.6-57.6 57.6c-6.8 6.8-17.9 6.8-24.7 0s-6.8-17.9 0-24.7l64.9-64.9v-137.4l-119 68.7-23.7 88.6c-2.1 7.8-9.2 13-16.9 13-1.5 0-3-0.2-4.5-0.6-9.3-2.5-14.9-12.1-12.4-21.4l21.1-78.7-78.9-21.1c-9.3-2.5-14.9-12.1-12.4-21.4s12-14.9 21.4-12.4l88.6 23.7 119-68.7-119-68.7-88.6 23.7c-1.5 0.4-3 0.6-4.5 0.6-7.7 0-14.8-5.2-16.9-13-2.5-9.3 3-18.9 12.4-21.4l78.7-21.1-21.1-78.7c-2.5-9.3 3-18.9 12.4-21.4 9.3-2.6 18.9 3 21.4 12.4l23.7 88.6 119 68.7v-137.4l-64.9-64.9c-6.8-6.8-6.8-17.9 0-24.7s17.9-6.8 24.7 0l57.6 57.6 57.6-57.6c6.8-6.8 17.9-6.8 24.7 0s6.8 17.9 0 24.7l-64.9 64.9v137.5l119-68.7 23.7-88.6c2.5-9.3 12.1-14.9 21.4-12.4s14.9 12.1 12.4 21.4l-21.1 78.7 78.7 21.1c9.3 2.5 14.9 12.1 12.4 21.4-2.1 7.8-9.2 13-16.9 13-1.5 0-3-0.2-4.6-0.6l-88.6-23.7-119 68.7 119 68.7 88.6-23.7c9.8-2.6 19.3 2.9 21.9 12.3z"></path></svg>
